<svg width="781" height="910" viewBox="0 0 781 910" fill="none" xmlns="http://www.w3.org/2000/svg">
<path d="M609.5 673.499C609.5 800.249 509.66 902.999 386.5 902.999C263.34 902.999 163.5 800.249 163.5 673.499C163.5 546.75 344.84 713.5 468 713.5C591.16 713.5 609.5 402 609.5 673.499Z" fill="#00C49A"/>
<path d="M555.75 448.9C534.85 410.267 508.567 382.717 476.9 366.25C445.233 349.15 411.033 340.6 374.3 340.6C334.4 340.6 298.617 350.417 266.95 370.05C235.283 389.683 209.95 416.917 190.95 451.75C172.583 485.95 163.4 525.533 163.4 570.5C163.4 616.1 172.267 656.317 190 691.15C208.367 725.35 233.383 752.267 265.05 771.9C297.35 790.9 334.083 800.4 375.25 800.4C402.483 800.4 427.817 795.65 451.25 786.15C475.317 776.65 496.217 763.667 513.95 747.2C532.317 730.733 547.2 711.417 558.6 689.25V634.15H377.15V531.55H684V705.4C668.8 742.133 646.317 776.333 616.55 808C586.783 839.033 551 863.733 509.2 882.1C468.033 900.467 422.117 909.65 371.45 909.65C322.683 909.65 277.717 901.417 236.55 884.95C196.017 868.483 160.233 845.367 129.2 815.6C98.8 785.2 75.05 749.417 57.95 708.25C40.85 666.45 32.3 620.533 32.3 570.5C32.3 521.1 40.85 475.817 57.95 434.65C75.05 392.85 98.8 356.75 129.2 326.35C159.6 295.95 195.383 272.517 236.55 256.05C277.717 239.583 322.367 231.35 370.5 231.35C414.833 231.35 456.95 238.633 496.85 253.2C536.75 267.133 571.9 287.717 602.3 314.95C632.7 341.55 656.133 374.167 672.6 412.8L555.75 448.9Z" fill="url(#paint0_linear_98_24)"/>
<defs>
<linearGradient id="paint0_linear_98_24" x1="96.8849" y1="1126.77" x2="813.582" y2="617.818" gradientUnits="userSpaceOnUse">
<stop offset="0.222835" stop-color="white"/>
<stop offset="0.854847" stop-color="#999999"/>
</linearGradient>
</defs>
</svg>
